<?xml version="1.0" encoding="UTF-8"?>
<svg version="1.1" xmlns="http://www.w3.org/2000/svg" width="256" height="113">
<path d="M0 0 C11.075625 -0.0825 22.15125 -0.165 33.5625 -0.25 C37.0282251 -0.28641602 40.4939502 -0.32283203 44.06469727 -0.36035156 C48.37683105 -0.37841797 48.37683105 -0.37841797 50.41099548 -0.3817749 C51.79788892 -0.38782005 53.18476466 -0.40167961 54.57151794 -0.42230225 C67.24903222 -0.60100438 78.59919579 0.96756913 90 7 C90.99 7.495 90.99 7.495 92 8 C93.35573748 9.31054623 94.68612831 10.64748503 96 12 C97.0828125 12.8971875 97.0828125 12.8971875 98.1875 13.8125 C100.64106378 16.77369767 100.66271938 19.22245703 101 23 C101.25330078 23.84498047 101.25330078 23.84498047 101.51171875 24.70703125 C102.25128152 28.180018 102.14803512 31.65352906 102.125 35.1875 C102.12016602 35.94909424 102.11533203 36.71068848 102.11035156 37.49536133 C101.94251178 53.21020049 101.94251178 53.21020049 97 59 C95.67331021 59.67979146 94.33923233 60.34526419 93 61 C91.66947798 61.99723022 90.35713404 63.01910187 89.0625 64.0625 C86.07757163 66.35559451 83.86292707 67.75856706 80 68 C80 68.66 80 69.32 80 70 C80.845625 70.20625 81.69125 70.4125 82.5625 70.625 C86.87710219 72.35084088 89.65490156 74.84255342 93 78 C93.7425 78.680625 94.485 79.36125 95.25 80.0625 C97.96033859 83.06323201 99.80848224 85.62745607 100.375 89.6875 C101.29705345 94.57438326 103.66624352 98.64250636 106 103 C106.66 103 107.32 103 108 103 C110.32221873 106.77360544 110 108.01199411 110 113 C97.13 113 84.26 113 71 113 C67.04 104.585 67.04 104.585 63 96 C60.71182157 92.6952986 60.71182157 92.6952986 58.2265625 89.54296875 C57 88 57 88 56.09375 85.87890625 C55.15611731 83.83739227 55.15611731 83.83739227 53.0546875 83.171875 C51.97574219 82.96304688 51.97574219 82.96304688 50.875 82.75 C48.956875 82.37875 48.956875 82.37875 47 82 C47 82.33 47 82.66 47 83 C43.7 83 40.4 83 37 83 C37 92.9 37 102.8 37 113 C24.79 113 12.58 113 0 113 C0 75.71 0 38.42 0 0 Z M35 25 C35 25.33 35 25.66 35 26 C41.93 26 48.86 26 56 26 C56 25.67 56 25.34 56 25 C49.07 25 42.14 25 35 25 Z M35 27 C35 36.24 35 45.48 35 55 C35.33 55 35.66 55 36 55 C36 45.76 36 36.52 36 27 C35.67 27 35.34 27 35 27 Z M51.453125 26.21875 C50.69161133 26.25935547 49.93009766 26.29996094 49.14550781 26.34179688 C48.18999023 26.39400391 47.23447266 26.44621094 46.25 26.5 C43.1975 26.665 40.145 26.83 37 27 C37 36.24 37 45.48 37 55 C42.2903125 55.3403125 42.2903125 55.3403125 47.6875 55.6875 C48.79053467 55.76701904 49.89356934 55.84653809 51.0300293 55.9284668 C55.2276442 56.15767892 58.24026198 56.31702648 62.1640625 54.6796875 C64.48998871 52.55171246 64.60653839 51.06900058 65 48 C65.66 47.34 66.32 46.68 67 46 C67.88042553 41.75794972 68.34824189 38.16729313 67 34 C66.34 33.67 65.68 33.34 65 33 C64.87625 32.38125 64.7525 31.7625 64.625 31.125 C63.77930407 28.24963383 62.56834171 27.46762383 60 26 C57.12693191 26 54.31705356 26.06394305 51.453125 26.21875 Z M35 56 C35 56.33 35 56.66 35 57 C41.6 57 48.2 57 55 57 C55 56.67 55 56.34 55 56 C48.4 56 41.8 56 35 56 Z " fill="#F6FE00" transform="translate(146,0)"/>
<path d="M0 0 C15.18 0 30.36 0 46 0 C46 1.98 46 3.96 46 6 C46.66 6 47.32 6 48 6 C48 7.65 48 9.3 48 11 C48.66 11 49.32 11 50 11 C50.495 14.96 50.495 14.96 51 19 C51.66 19 52.32 19 53 19 C52.95875 19.94875 52.9175 20.8975 52.875 21.875 C52.65026182 25.10244856 52.65026182 25.10244856 55 27 C56 30 57 33 58 36 C59.06201737 38.22739701 59.06201737 38.22739701 61 41 C61.125 43.6875 61.125 43.6875 61 46 C61.66 46 62.32 46 63 46 C62.95875 46.94875 62.9175 47.8975 62.875 48.875 C62.65026182 52.10244856 62.65026182 52.10244856 65 54 C66 57 67 60 68 63 C69.06201737 65.22739701 69.06201737 65.22739701 71 68 C71.125 70.6875 71.125 70.6875 71 73 C71.66 73 72.32 73 73 73 C73 74.98 73 76.96 73 79 C73.66 79 74.32 79 75 79 C75.2165625 80.1446875 75.2165625 80.1446875 75.4375 81.3125 C75.9632594 84.08172908 75.9632594 84.08172908 77 87 C77.33 87.99 77.66 88.98 78 90 C79.06201737 92.22739701 79.06201737 92.22739701 81 95 C81.125 97.6875 81.125 97.6875 81 100 C81.66 100 82.32 100 83 100 C83 101.98 83 103.96 83 106 C83.66 106 84.32 106 85 106 C86.125 110.75 86.125 110.75 85 113 C80.21281308 113.02471738 75.4256633 113.04286825 70.63842773 113.05493164 C69.00984042 113.05996065 67.38125763 113.06678465 65.75268555 113.07543945 C63.41193528 113.08756769 61.0712447 113.09324263 58.73046875 113.09765625 C58.00224411 113.10281754 57.27401947 113.10797882 56.52372742 113.11329651 C53.40397712 113.11364279 50.98366812 112.99455604 48 112 C48 111.01 48 110.02 48 109 C31.5 109 15 109 -2 109 C-2.33 109.66 -2.66 110.32 -3 111 C-5 113 -5 113 -8.34814453 113.22705078 C-9.77640633 113.22673375 -11.20469212 113.21541361 -12.6328125 113.1953125 C-13.76056595 113.19106766 -13.76056595 113.19106766 -14.91110229 113.18673706 C-17.31589578 113.17552874 -19.72031881 113.15042352 -22.125 113.125 C-23.75390088 113.11497102 -25.38280758 113.10584503 -27.01171875 113.09765625 C-31.00795556 113.07558735 -35.00391494 113.04105351 -39 113 C-39.14486088 107.64014738 -37.9967024 103.49505361 -35 99 C-34.83286431 96.37468476 -34.83286431 96.37468476 -35 94 C-34.34 94 -33.68 94 -33 94 C-33 92.02 -33 90.04 -33 88 C-32.34 88 -31.68 88 -31 88 C-30.67 85.36 -30.34 82.72 -30 80 C-29.34 80 -28.68 80 -28 80 C-28 78.35 -28 76.7 -28 75 C-27.34 75 -26.68 75 -26 75 C-26.061875 74.236875 -26.12375 73.47375 -26.1875 72.6875 C-26 70 -26 70 -24.5 68.5625 C-22.65265481 66.97647182 -22.65265481 66.97647182 -22.8125 63.8125 C-22.874375 62.884375 -22.93625 61.95625 -23 61 C-22.34 61 -21.68 61 -21 61 C-20.67 58.36 -20.34 55.72 -20 53 C-19.34 53 -18.68 53 -18 53 C-18 51.35 -18 49.7 -18 48 C-17.34 48 -16.68 48 -16 48 C-16.04125 47.05125 -16.0825 46.1025 -16.125 45.125 C-16 42 -16 42 -14 40 C-13.67 39.01 -13.34 38.02 -13 37 C-12 34 -12 34 -11 32 C-10.49049968 29.70510779 -10.04352809 27.40179248 -9.59765625 25.09375 C-9 23 -9 23 -7 21 C-6.10869587 18.3260876 -5.52268466 15.76276177 -5 13 C-4.34 13 -3.68 13 -3 13 C-3 11.02 -3 9.04 -3 7 C-2.34 7 -1.68 7 -1 7 C-0.67 4.69 -0.34 2.38 0 0 Z M0 2 C1 4 1 4 1 4 Z M49 14 C50 16 50 16 50 16 Z M-8 24 C-7 26 -7 26 -7 26 Z M-10 29 C-9 31 -9 31 -9 31 Z M23 34 C23 37 23 37 23 37 Z M22 39 C21.566875 40.2065625 21.566875 40.2065625 21.125 41.4375 C20 44 20 44 18 45 C17.39220893 47.76432384 17.04116492 50.53200962 16.66015625 53.3359375 C15.93108792 56.27809488 15.10619165 56.96102724 13 59 C12.49827311 61.10484589 12.49827311 61.10484589 12.4375 63.375 C12.14840616 66.92507238 11.69765782 69.80440882 10 73 C9.01 73.495 9.01 73.495 8 74 C8.33 75.65 8.66 77.3 9 79 C18.24 79 27.48 79 37 79 C36.34 75.7 35.68 72.4 35 69 C34.855625 67.865625 34.71125 66.73125 34.5625 65.5625 C33.92190799 62.64424753 33.1414198 61.97010621 31 60 C29.48215993 57.04420618 28.99553818 55.22309079 29.0625 51.875 C29.31611268 49.02959263 29.31611268 49.02959263 27.6875 47.5625 C27.130625 47.046875 26.57375 46.53125 26 46 C24.85538478 43.71076956 23.94433095 41.38331143 23 39 C22.67 39 22.34 39 22 39 Z M59 41 C60 43 60 43 60 43 Z M16 51 C17 53 17 53 17 53 Z M29 52 C30 54 30 54 30 54 Z M15 54 C16 56 16 56 16 56 Z M30 55 C31 57 31 57 31 57 Z M-20 56 C-19 58 -19 58 -19 58 Z M31 58 C32 60 32 60 32 60 Z M69 68 C70 70 70 70 70 70 Z M7 77 C8 79 8 79 8 79 Z M6 80 C6 80.33 6 80.66 6 81 C16.89 81 27.78 81 39 81 C39 80.67 39 80.34 39 80 C28.11 80 17.22 80 6 80 Z M-30 83 C-29 85 -29 85 -29 85 Z M79 95 C80 97 80 97 80 97 Z M-3 107 C-3 107.33 -3 107.66 -3 108 C13.5 108 30 108 47 108 C47 107.67 47 107.34 47 107 C30.5 107 14 107 -3 107 Z " fill="#F5FE00" transform="translate(39,0)"/>
<path d="M0 0 C0.33 0 0.66 0 1 0 C1 37.29 1 74.58 1 113 C0.67 113 0.34 113 0 113 C0 75.71 0 38.42 0 0 Z " fill="#F1F737" transform="translate(144,0)"/>
<path d="M0 0 C0.33 0 0.66 0 1 0 C1 5.61 1 11.22 1 17 C0.67 17 0.34 17 0 17 C0 11.39 0 5.78 0 0 Z " fill="#F7F539" transform="translate(249,27)"/>
<path d="M0 0 C4 1 4 1 4 1 Z " fill="#F1F734" transform="translate(194,83)"/>
<path d="M0 0 C0.66 0.33 1.32 0.66 2 1 C1.01 1 0.02 1 -1 1 C-0.67 0.67 -0.34 0.34 0 0 Z " fill="#F1FE0A" transform="translate(229,68)"/>
<path d="M0 0 C4 1 4 1 4 1 Z " fill="#FDF826" transform="translate(201,54)"/>
<path d="M0 0 C1 4 1 4 1 4 Z " fill="#FDFB0B" transform="translate(248,44)"/>
<path d="M0 0 C4 1 4 1 4 1 Z " fill="#E6FB36" transform="translate(202,27)"/>
<path d="M0 0 C1 4 1 4 1 4 Z " fill="#F3FF02" transform="translate(248,23)"/>
<path d="M0 0 C4 1 4 1 4 1 Z " fill="#E7FE00" transform="translate(220,0)"/>
<path d="" fill="#DEF901" transform="translate(0,0)"/>
<path d="" fill="#F7F430" transform="translate(0,0)"/>
<path d="" fill="#D4FD01" transform="translate(0,0)"/>
<path d="" fill="#F1F627" transform="translate(0,0)"/>
<path d="M0 0 C3 1 3 1 3 1 Z " fill="#F0FD0E" transform="translate(198,84)"/>
<path d="" fill="#F7FD12" transform="translate(0,0)"/>
<path d="" fill="#F7F925" transform="translate(0,0)"/>
<path d="" fill="#F0FA34" transform="translate(0,0)"/>
<path d="" fill="#F3FD0F" transform="translate(0,0)"/>
<path d="" fill="#F2FE16" transform="translate(0,0)"/>
<path d="" fill="#F0FC21" transform="translate(0,0)"/>
<path d="" fill="#EFF533" transform="translate(0,0)"/>
<path d="" fill="#E6FF00" transform="translate(0,0)"/>
<path d="" fill="#F7F725" transform="translate(0,0)"/>
<path d="" fill="#DFEE32" transform="translate(0,0)"/>
<path d="" fill="#E7FD0B" transform="translate(0,0)"/>
<path d="" fill="#F0FA3C" transform="translate(0,0)"/>
<path d="" fill="#F5FD00" transform="translate(0,0)"/>
<path d="" fill="#F8F41A" transform="translate(0,0)"/>
<path d="" fill="#F4FC16" transform="translate(0,0)"/>
<path d="" fill="#F3FB25" transform="translate(0,0)"/>
<path d="" fill="#F1FA26" transform="translate(0,0)"/>
<path d="" fill="#F6FD0B" transform="translate(0,0)"/>
<path d="" fill="#F4F632" transform="translate(0,0)"/>
<path d="M0 0 C3 1 3 1 3 1 Z " fill="#EBFC25" transform="translate(227,2)"/>
<path d="M0 0 C3 1 3 1 3 1 Z " fill="#F8FF00" transform="translate(224,1)"/>
<path d="" fill="#F4F432" transform="translate(0,0)"/>
<path d="" fill="#F6FA1D" transform="translate(0,0)"/>
<path d="" fill="#F3FF00" transform="translate(0,0)"/>
<path d="" fill="#F3FF02" transform="translate(0,0)"/>
<path d="" fill="#F5FB1B" transform="translate(0,0)"/>
<path d="" fill="#F8FA18" transform="translate(0,0)"/>
<path d="" fill="#FBFC01" transform="translate(0,0)"/>
<path d="" fill="#FBFC00" transform="translate(0,0)"/>
<path d="" fill="#F5FB1C" transform="translate(0,0)"/>
<path d="" fill="#F8FF05" transform="translate(0,0)"/>
<path d="" fill="#F7FB1D" transform="translate(0,0)"/>
<path d="" fill="#F5F833" transform="translate(0,0)"/>
<path d="" fill="#F5FF01" transform="translate(0,0)"/>
<path d="" fill="#EEFE19" transform="translate(0,0)"/>
<path d="" fill="#F0FA34" transform="translate(0,0)"/>
<path d="" fill="#F5FC16" transform="translate(0,0)"/>
<path d="" fill="#F1FF03" transform="translate(0,0)"/>
<path d="M0 0 C2 1 2 1 2 1 Z " fill="#D1EB00" transform="translate(230,70)"/>
<path d="" fill="#F1F83C" transform="translate(0,0)"/>
<path d="M0 0 C2 1 2 1 2 1 Z " fill="#C1EC12" transform="translate(231,67)"/>
<path d="M0 0 C2 1 2 1 2 1 Z " fill="#F0FA31" transform="translate(234,65)"/>
<path d="" fill="#F3FB1C" transform="translate(0,0)"/>
<path d="" fill="#F0FF04" transform="translate(0,0)"/>
<path d="M0 0 C2 1 2 1 2 1 Z " fill="#F9FE06" transform="translate(205,53)"/>
<path d="" fill="#E4F228" transform="translate(0,0)"/>
<path d="M0 0 C2 1 2 1 2 1 Z " fill="#F3FC22" transform="translate(207,52)"/>
<path d="" fill="#F8FB1B" transform="translate(0,0)"/>
<path d="" fill="#F0F830" transform="translate(0,0)"/>
<path d="" fill="#EAFD1E" transform="translate(0,0)"/>
<path d="" fill="#F0F924" transform="translate(0,0)"/>
<path d="" fill="#EFF930" transform="translate(0,0)"/>
<path d="" fill="#EAFF19" transform="translate(0,0)"/>
<path d="M0 0 C2 1 2 1 2 1 Z " fill="#F5FB1A" transform="translate(206,28)"/>
<path d="" fill="#E0F928" transform="translate(0,0)"/>
<path d="" fill="#FAFD00" transform="translate(0,0)"/>
<path d="" fill="#F4F919" transform="translate(0,0)"/>
<path d="" fill="#DDFF0F" transform="translate(0,0)"/>
<path d="M0 0 C2 1 2 1 2 1 Z " fill="#E6FD19" transform="translate(230,3)"/>
<path d="" fill="#F3F928" transform="translate(0,0)"/>
<path d="" fill="#F0FB28" transform="translate(0,0)"/>
<path d="" fill="#FDFC07" transform="translate(0,0)"/>
<path d="" fill="#F1FF08" transform="translate(0,0)"/>
<path d="" fill="#F3FF00" transform="translate(0,0)"/>
<path d="" fill="#E8FF07" transform="translate(0,0)"/>
<path d="" fill="#E6FF02" transform="translate(0,0)"/>
<path d="" fill="#E6FE0B" transform="translate(0,0)"/>
<path d="" fill="#DFFC00" transform="translate(0,0)"/>
<path d="" fill="#BBE835" transform="translate(0,0)"/>
<path d="" fill="#EFF400" transform="translate(0,0)"/>
<path d="" fill="#F2F608" transform="translate(0,0)"/>
<path d="" fill="#F1FD00" transform="translate(0,0)"/>
<path d="" fill="#F5FC0D" transform="translate(0,0)"/>
<path d="" fill="#F4FF00" transform="translate(0,0)"/>
<path d="" fill="#F3FF0C" transform="translate(0,0)"/>
<path d="" fill="#F1FF00" transform="translate(0,0)"/>
<path d="" fill="#F1FF10" transform="translate(0,0)"/>
<path d="" fill="#F4FA2D" transform="translate(0,0)"/>
<path d="" fill="#F4FA2B" transform="translate(0,0)"/>
<path d="" fill="#F4FA2B" transform="translate(0,0)"/>
<path d="" fill="#F0FE2C" transform="translate(0,0)"/>
<path d="" fill="#F2FF0D" transform="translate(0,0)"/>
<path d="" fill="#FFFF10" transform="translate(0,0)"/>
<path d="" fill="#F5FF32" transform="translate(0,0)"/>
</svg>
